Coordinates
version=1
nRows=10
nColumns=40
inDegrees=yes

Units are S.I. units (second, meters, Newtons, ...)
Angles are in degrees.

endheader
time	pelvis_tilt	pelvis_list	pelvis_rotation	pelvis_tx	pelvis_ty	pelvis_tz	hip_flexion_r	hip_adduction_r	hip_rotation_r	knee_angle_r	knee_angle_r_beta	ankle_angle_r	subtalar_angle_r	mtp_angle_r	hip_flexion_l	hip_adduction_l	hip_rotation_l	knee_angle_l	knee_angle_l_beta	ankle_angle_l	subtalar_angle_l	mtp_angle_l	lumbar_extension	lumbar_bending	lumbar_rotation	arm_flex_r	arm_add_r	arm_rot_r	elbow_flex_r	pro_sup_r	wrist_flex_r	wrist_dev_r	arm_flex_l	arm_add_l	arm_rot_l	elbow_flex_l	pro_sup_l	wrist_flex_l	wrist_dev_l
     44.48000000	    -10.55670725	     -4.97153527	      0.03628618	      0.97877113	      0.90986000	      0.48764460	     30.64579336	      0.67459926	    -12.77153134	     24.51893183	     24.51893183	      6.06263060	     -3.37369942	      1.84123444	      9.97762419	    -11.28994064	     -1.80345380	     40.27588993	     40.27588993	     11.61639876	     -6.93058102	    -13.37569474	    -12.38234962	      4.19279678	     -0.17652984	     -8.31630820	    -12.25640837	      4.84762516	     31.50147769	     46.09424690	      0.00000000	      0.00000000	     10.27503489	    -12.96112634	     -9.64959427	    104.83282148	     48.44872331	      0.00000000	      0.00000000
     44.49171429	    -10.70003032	     -5.14189609	      0.19087591	      0.97858309	      0.91142784	      0.49010494	     29.85991818	      1.00317222	    -13.13102699	     23.84831354	     23.84831354	      6.40333975	     -2.93015737	      1.92400466	     12.22992454	    -11.56718942	     -0.61025056	     44.25216463	     44.25216463	      9.45196179	     -8.85785215	    -12.74771166	    -12.29000196	      4.40636495	     -0.21930139	     -6.61517328	    -12.46255268	      4.79906408	     32.51392688	     46.06601514	      0.00000000	      0.00000000	      9.21926316	    -12.58287172	     -9.31014572	    102.42128544	     48.37783296	      0.00000000	      0.00000000
     44.50342857	    -10.84210094	     -5.26035907	      0.29587338	      0.97826926	      0.91293497	      0.49247106	     29.07496582	      1.29574770	    -13.47833033	     23.15976024	     23.15976024	      6.70300528	     -2.41042373	      1.96436134	     14.56877605	    -11.66300309	      0.62616163	     48.22665316	     48.22665316	      7.47928726	    -10.86384743	    -11.46913208	    -12.16726644	      4.52849860	     -0.20621775	     -4.90232696	    -12.72152097	      4.72315481	     33.68932925	     46.03243445	      0.00000000	      0.00000000	      8.29257567	    -12.20041578	     -8.97522896	     99.50844930	     48.29797777	      0.00000000	      0.00000000
     44.51514286	    -10.94029432	     -5.21592570	      0.30332202	      0.97784145	      0.91446427	      0.49474651	     28.28925108	      1.43383052	    -13.74195842	     22.54254638	     22.54254638	      7.02206188	     -1.70560637	      1.91327904	     16.87632158	    -11.45679173	      1.78671863	     52.12370848	     52.12370848	      6.13679260	    -12.73757897	     -8.72536721	    -12.05854184	      4.47564977	      0.02726000	     -3.32067180	    -13.04697238	      4.64458425	     35.34117279	     45.97551094	      0.00000000	      0.00000000	      7.87609381	    -11.75016437	     -8.59645454	     95.23773163	     48.19460100	      0.00000000	      0.00000000
     44.52685714	    -10.95250592	     -5.32608844	      0.28308363	      0.97728537	      0.91580270	      0.49710704	     27.47764833	      1.75557266	    -13.97152324	     22.01324066	     22.01324066	      7.24582688	     -1.21093574	      1.79543556	     19.41743040	    -11.55601728	      2.67814155	     56.50594379	     56.50594379	      7.29680178	    -12.55611512	     -1.37890335	    -12.09484002	      4.58964160	      1.50939675	     -3.07191782	    -13.76677321	      3.82927596	     38.79713811	     45.85733703	      0.00000000	      0.00000000	      8.42459020	    -11.09417648	     -6.53696441	     90.43420943	     48.00704396	      0.00000000	      0.00000000
     44.53857143	    -10.98037673	     -5.37469854	      0.24086447	      0.97662843	      0.91707507	      0.49944321	     26.68856233	      2.03416957	    -14.12170712	     21.47407101	     21.47407101	      7.50759844	     -0.74210403	      1.72602070	     21.67088833	    -11.48560848	      3.56412300	     59.95645371	     59.95645371	      6.05476636	    -14.11437629	     -0.29835591	    -12.09287263	      4.53955461	      1.36567853	     -0.86974782	    -13.99481943	      3.50182057	     39.86397802	     45.84497284	      0.00000000	      0.00000000	      7.43501519	    -10.93973955	     -6.40396458	     87.23478205	     47.93733268	      0.00000000	      0.00000000
     44.55028571	    -10.91545514	     -5.39946617	      0.17259039	      0.97590894	      0.91830952	      0.50168308	     25.88708031	      2.25914819	    -14.30261262	     21.10326915	     21.10326915	      7.71887740	     -0.25248321	      1.58834064	     23.85706592	    -11.39770855	      4.31447700	     63.28300479	     63.28300479	      5.64757547	    -15.26144301	      1.62705604	    -12.14225831	      4.45169917	      1.58256496	      1.14569628	    -14.32909898	      3.15444860	     41.03841969	     45.82562061	      0.00000000	      0.00000000	      7.13424628	    -10.42939245	     -6.21521400	     82.51510891	     47.84189893	      0.00000000	      0.00000000
     44.56200000	    -10.90094640	     -5.44631079	      0.08769152	      0.97499622	      0.91935504	      0.50381565	     25.15186152	      2.52099421	    -14.33827797	     20.71426196	     20.71426196	      7.98676573	      0.17773641	      1.40140927	     26.16939631	    -11.33412973	      5.02241850	     66.48876229	     66.48876229	      6.17999532	    -15.75481333	      5.07693221	    -12.11582937	      4.46187052	      2.66384074	      2.48790894	    -14.80111379	      2.35371738	     42.60510531	     45.80164146	      0.00000000	      0.00000000	      7.71166970	     -9.66385024	     -5.43672282	     76.69251370	     47.70028516	      0.00000000	      0.00000000
     44.57371429	    -10.80694966	     -5.45991431	      0.02765029	      0.97399994	      0.92036512	      0.50588426	     24.40446893	      2.72664464	    -14.38689618	     20.45984335	     20.45984335	      8.27973174	      0.50457379	      1.29061745	     28.29615199	    -11.23932097	      5.65258292	     69.23272515	     69.23272515	      6.31347152	    -16.47570926	      6.63254887	    -12.20368939	      4.36406801	      2.93120090	      4.51682112	    -15.02990171	      1.58897441	     43.99977996	     45.78874022	      0.00000000	      0.00000000	      7.50299621	     -9.39701661	     -4.98350766	     71.80809351	     47.59053584	      0.00000000	      0.00000000
     44.58542857	    -10.75305098	     -5.57663099	      0.03613060	      0.97285394	      0.92111111	      0.50784730	     23.71148276	      3.02790621	    -14.45137663	     20.20186228	     20.20186228	      8.58728325	      0.67651366	      1.23315187	     30.46208045	    -11.25030899	      6.33131890	     71.62652108	     71.62652108	      6.21337609	    -17.14213573	      6.79719223	    -12.27995765	      4.34972184	      2.61028972	      6.96256618	    -15.07817777	      1.21098841	     45.24827072	     45.77282880	      0.00000000	      0.00000000	      6.28024085	     -9.53316770	     -4.70168911	     68.90678206	     47.51357794	      0.00000000	      0.00000000
